{"title":"Jigar Ka Tukda (Ladies vs Ricky Bahl) - Full Song - H.264 - 720p","uid":6968510,"size":103350060,"categoryP":"video","categoryS":"music_videos","magnet":"?xt=urn:btih:8f7b0b69870cce69d749812c12cc3a62a961af2f&amp;dn=Jigar+Ka+Tukda+%28Ladies+vs+Ricky+Bahl%29+-+Full+Song+-+H.264+-+720p&amp;tr=udp%3A%2F%2Ftracker.openbittorrent.com%3A80&amp;tr=udp%3A%2F%2Fopen.demonii.com%3A1337&amp;tr=udp%3A%2F%2Ftracker.coppersurfer.tk%3A6969&amp;tr=udp%3A%2F%2Fexodus.desync.com%3A6969","seeders":1,"leechers":0,"uploader":"AbhiHKRG","files":6,"time":1327002515,"description":"Cover :: &lt;a href=&quot;\nhttp://i.minus.com/idBC9I8B5jkEN.png&quot; rel=&quot;nofollow&quot; target=&quot;_NEW&quot;&gt;\nhttp://i.minus.com/idBC9I8B5jkEN.png&lt;/a&gt;\n\n\nScreen ::\n &lt;a href=&quot;\nhttp://i.minus.com/ib2mtl4LpnN2BL.png&quot; rel=&quot;nofollow&quot; target=&quot;_NEW&quot;&gt;\nhttp://i.minus.com/ib2mtl4LpnN2BL.png&lt;/a&gt;\n &lt;a href=&quot;\nhttp://i.minus.com/iUwPjEUQOkKtf.png&quot; rel=&quot;nofollow&quot; target=&quot;_NEW&quot;&gt;\nhttp://i.minus.com/iUwPjEUQOkKtf.png&lt;/a&gt;\n &lt;a href=&quot;\nhttp://i.minus.com/irgtc6P88nILY.png&quot; rel=&quot;nofollow&quot; target=&quot;_NEW&quot;&gt;\nhttp://i.minus.com/irgtc6P88nILY.png&lt;/a&gt;\n &lt;a href=&quot;\nhttp://i.minus.com/icPYiCRArzlCF.png&quot; rel=&quot;nofollow&quot; target=&quot;_NEW&quot;&gt;\nhttp://i.minus.com/icPYiCRArzlCF.png&lt;/a&gt;\n &lt;a href=&quot;\nhttp://i.minus.com/iELjx1ao2xQF9.png&quot; rel=&quot;nofollow&quot; target=&quot;_NEW&quot;&gt;\nhttp://i.minus.com/iELjx1ao2xQF9.png&lt;/a&gt;\n &lt;a href=&quot;\nhttp://i.minus.com/i6apgUKwBGfUW.png&quot; rel=&quot;nofollow&quot; target=&quot;_NEW&quot;&gt;\nhttp://i.minus.com/i6apgUKwBGfUW.png&lt;/a&gt;\n &lt;a href=&quot;\nhttp://i.minus.com/iqoOSwS521SGF.jpg&quot; rel=&quot;nofollow&quot; target=&quot;_NEW&quot;&gt;\nhttp://i.minus.com/iqoOSwS521SGF.jpg&lt;/a&gt;\n\n\nGeneral Info ::\nFormat                           : AVI\nFormat/Info                      : Audio Video Interleave\nFile size                        : 98.6 MiB\nDuration                         : 4mn 19s\nOverall bit rate                 : 3 189 Kbps\n\n\nVideo Info ::\nID                               : 0\nFormat                           : AVC\nFormat/Info                      : Advanced Video Codec\nFormat profile                   : &lt;a class=&quot;__cf_email__&quot; href=&quot;/cdn-cgi/l/email-protection&quot; data-cfemail=&quot;83cbeae4ebc3cfb6adb2&quot;&gt;[email&amp;#160;protected]&lt;/a&gt;&lt;script cf-hash='f9e31' type=&quot;text/javascript&quot;&gt;\n/* &lt;![CDATA[ */!function(){try{var t=&quot;currentScript&quot;in document?document.currentScript:function(){for(var t=document.getElementsByTagName(&quot;script&quot;),e=t.length;e--;)if(t[e].getAttribute(&quot;cf-hash&quot;))return t[e]}();if(t&amp;&amp;t.previousSibling){var e,r,n,i,c=t.previousSibling,a=c.getAttribute(&quot;data-cfemail&quot;);if(a){for(e=&quot;&quot;,r=parseInt(a.substr(0,2),16),n=2;a.length-n;n+=2)i=parseInt(a.substr(n,2),16)^r,e+=String.fromCharCode(i);e=document.createTextNode(e),c.parentNode.replaceChild(e,c)}}}catch(u){}}();/* ]]&gt; */&lt;/script&gt;\nFormat settings, CABAC           : Yes\nFormat settings, ReFrames        : 2 frames\nCodec ID                         : H264\nDuration                         : 10s 0ms\nBit rate                         : 2 858 Kbps\nWidth                            : 1 280 pixels\nHeight                           : 544 pixels\nDisplay aspect ratio             : 2.35:1\nFrame rate                       : 30.000 fps\nColor space                      : YUV\nChroma subsampling               : 4:2:0\nBit depth                        : 8 bits\nScan type                        : Progressive\nBits/(Pixel*Frame)               : 0.137\nStream size                      : 88.3 MiB (90%)\n\n\nAudio Info ::\nID                               : 1\nFormat                           : MPEG Audio\nFormat version                   : Version 1\nFormat profile                   : Layer 3\nCodec ID                         : 55\nCodec ID/Hint                    : MP3\nDuration                         : 4mn 19s\nBit rate mode                    : Constant\nBit rate                         : 320 Kbps\nChannel(s)                       : 2 channels\nSampling rate                    : 48.0 KHz\nCompression mode                 : Lossy\nStream size                      : 9.89 MiB (10%)\n","torrent":{"xt":"urn:btih:8f7b0b69870cce69d749812c12cc3a62a961af2f","amp;dn":"Jigar+Ka+Tukda+%28Ladies+vs+Ricky+Bahl%29+-+Full+Song+-+H.264+-+720p","amp;tr":["udp%3A%2F%2Ftracker.openbittorrent.com%3A80","udp%3A%2F%2Fopen.demonii.com%3A1337","udp%3A%2F%2Ftracker.coppersurfer.tk%3A6969","udp%3A%2F%2Fexodus.desync.com%3A6969"],"infoHash":"8f7b0b69870cce69d749812c12cc3a62a961af2f","infoHashBuffer":{"type":"Buffer","data":[143,123,11,105,135,12,206,105,215,73,129,44,18,204,58,98,169,97,175,47]},"announce":[],"urlList":[]}}